<svg width="468" height="384" viewBox="0 0 468 384" fill="none" xmlns="http://www.w3.org/2000/svg">
<g clip-path="url(#clip0_5_4)">
<path d="M348.225 300.965H203.118C200.802 300.962 198.58 300.039 196.942 298.399C195.304 296.759 194.383 294.535 194.38 292.216V187.762C194.383 185.443 195.304 183.219 196.942 181.579C198.58 179.939 200.802 179.016 203.118 179.013H348.225C350.542 179.016 352.763 179.939 354.401 181.579C356.039 183.219 356.961 185.443 356.963 187.762V292.216C356.961 294.535 356.039 296.759 354.401 298.399C352.763 300.039 350.542 300.962 348.225 300.965Z" fill="#E6E6E6"/>
<path d="M205.8 293.991H345.543C346.666 293.991 347.744 293.544 348.539 292.748C349.333 291.953 349.78 290.874 349.78 289.749V190.229C349.78 189.104 349.333 188.025 348.539 187.23C347.744 186.434 346.666 185.987 345.543 185.987H205.8C204.677 185.987 203.599 186.434 202.805 187.23C202.01 188.025 201.564 189.104 201.564 190.229V289.749C201.564 290.874 202.01 291.953 202.805 292.748C203.599 293.544 204.677 293.991 205.8 293.991Z" fill="white"/>
<path d="M153.845 160.734H8.73818C6.42147 160.731 4.2004 159.809 2.56224 158.169C0.924084 156.529 0.00261695 154.305 0 151.985V47.5317C0.00261555 45.2122 0.924084 42.9885 2.56224 41.3483C4.2004 39.7082 6.42147 38.7856 8.73818 38.783H153.845C156.162 38.7856 158.383 39.7082 160.021 41.3483C161.659 42.9885 162.58 45.2122 162.583 47.5317V151.985C162.58 154.305 161.659 156.529 160.021 158.169C158.383 159.809 156.162 160.731 153.845 160.734Z" fill="#E6E6E6"/>
<path d="M11.4204 153.76H151.163C152.286 153.76 153.364 153.313 154.159 152.518C154.953 151.722 155.399 150.643 155.399 149.518V49.9987C155.399 48.8737 154.953 47.7948 154.159 46.9993C153.364 46.2038 152.286 45.7569 151.163 45.7569H11.4204C10.2968 45.7569 9.21913 46.2038 8.4246 46.9993C7.63006 47.7948 7.1837 48.8737 7.1837 49.9987V149.518C7.1837 150.643 7.63006 151.722 8.4246 152.518C9.21913 153.313 10.2968 153.76 11.4204 153.76Z" fill="white"/>
<path d="M328.886 216.91H239.623C239.205 216.91 238.79 216.993 238.403 217.153C238.017 217.313 237.665 217.549 237.369 217.845C237.073 218.141 236.838 218.493 236.678 218.88C236.518 219.268 236.435 219.683 236.435 220.102C236.435 220.521 236.518 220.936 236.678 221.323C236.838 221.711 237.073 222.062 237.369 222.359C237.665 222.655 238.017 222.89 238.403 223.051C238.79 223.211 239.205 223.294 239.623 223.294H328.886C329.731 223.294 330.542 222.957 331.14 222.359C331.738 221.76 332.074 220.948 332.074 220.102C332.074 219.255 331.738 218.444 331.14 217.845C330.542 217.246 329.731 216.91 328.886 216.91Z" fill="#E6E6E6"/>
<path d="M239.623 236.552C239.205 236.552 238.79 236.634 238.403 236.795C238.017 236.955 237.665 237.19 237.369 237.487C237.073 237.783 236.838 238.135 236.678 238.522C236.518 238.909 236.435 239.324 236.435 239.743C236.435 240.163 236.518 240.578 236.678 240.965C236.838 241.352 237.073 241.704 237.369 242C237.665 242.297 238.017 242.532 238.403 242.692C238.79 242.853 239.205 242.935 239.623 242.935H328.886C329.731 242.935 330.542 242.599 331.14 242C331.738 241.402 332.074 240.59 332.074 239.743C332.074 238.897 331.738 238.085 331.14 237.487C330.542 236.888 329.731 236.552 328.886 236.552H239.623Z" fill="#E6E6E6"/>
<path d="M239.623 256.193C238.778 256.193 237.967 256.53 237.369 257.128C236.771 257.727 236.435 258.539 236.435 259.385C236.435 260.232 236.771 261.043 237.369 261.642C237.967 262.241 238.778 262.577 239.623 262.577H328.886C329.731 262.577 330.542 262.241 331.14 261.642C331.738 261.043 332.074 260.232 332.074 259.385C332.074 258.539 331.738 257.727 331.14 257.128C330.542 256.53 329.731 256.193 328.886 256.193H239.623Z" fill="#E6E6E6"/>
<path d="M222.703 224.276C224.87 224.276 226.626 222.517 226.626 220.347C226.626 218.178 224.87 216.419 222.703 216.419C220.536 216.419 218.779 218.178 218.779 220.347C218.779 222.517 220.536 224.276 222.703 224.276Z" fill="#155FE8"/>
<path d="M222.703 243.917C224.87 243.917 226.626 242.159 226.626 239.989C226.626 237.819 224.87 236.061 222.703 236.061C220.536 236.061 218.779 237.819 218.779 239.989C218.779 242.159 220.536 243.917 222.703 243.917Z" fill="#E6E6E6"/>
<path d="M222.703 263.559C224.87 263.559 226.626 261.8 226.626 259.631C226.626 257.461 224.87 255.702 222.703 255.702C220.536 255.702 218.779 257.461 218.779 259.631C218.779 261.8 220.536 263.559 222.703 263.559Z" fill="#E6E6E6"/>
<path d="M293.328 220.102C293.328 220.521 293.245 220.936 293.085 221.323C292.925 221.71 292.69 222.062 292.394 222.359C292.098 222.655 291.747 222.89 291.36 223.051C290.973 223.211 290.559 223.294 290.14 223.294H239.738C238.951 223.305 238.186 223.031 237.584 222.523C236.982 222.014 236.584 221.305 236.463 220.526C236.404 220.075 236.441 219.617 236.572 219.182C236.704 218.746 236.927 218.344 237.226 218.002C237.525 217.66 237.893 217.385 238.307 217.197C238.72 217.009 239.169 216.911 239.623 216.91H290.14C290.985 216.91 291.796 217.246 292.394 217.845C292.992 218.443 293.328 219.255 293.328 220.102Z" fill="#155FE8"/>
<path d="M275.672 165.596C282.714 165.596 288.423 159.88 288.423 152.829C288.423 145.778 282.714 140.062 275.672 140.062C268.629 140.062 262.92 145.778 262.92 152.829C262.92 159.88 268.629 165.596 275.672 165.596Z" fill="#E6E6E6"/>
<path d="M281.965 153.852C282.529 150.372 280.169 147.093 276.693 146.528C273.217 145.964 269.942 148.327 269.378 151.807C268.814 155.287 271.175 158.566 274.65 159.13C278.126 159.695 281.401 157.332 281.965 153.852Z" fill="white"/>
<path d="M21.7506 96.7257C20.9126 96.7257 20.1091 97.0589 19.5166 97.6521C18.9241 98.2453 18.5912 99.0499 18.5912 99.8888C18.5912 100.728 18.9241 101.532 19.5166 102.125C20.1091 102.719 20.9126 103.052 21.7506 103.052H140.833C141.671 103.052 142.474 102.719 143.067 102.125C143.659 101.532 143.992 100.728 143.992 99.8888C143.992 99.0499 143.659 98.2453 143.067 97.6521C142.474 97.0589 141.671 96.7257 140.833 96.7257H21.7506Z" fill="#E6E6E6"/>
<path d="M21.7506 116.191C20.9126 116.191 20.1091 116.524 19.5166 117.117C18.9241 117.711 18.5912 118.515 18.5912 119.354C18.5912 120.193 18.9241 120.998 19.5166 121.591C20.1091 122.184 20.9126 122.517 21.7506 122.517H140.833C141.671 122.517 142.474 122.184 143.067 121.591C143.659 120.998 143.992 120.193 143.992 119.354C143.992 118.515 143.659 117.711 143.067 117.117C142.474 116.524 141.671 116.191 140.833 116.191H21.7506Z" fill="#E6E6E6"/>
<path d="M74.9729 136.63C74.135 136.63 73.3314 136.963 72.739 137.556C72.1465 138.149 71.8136 138.954 71.8136 139.793C71.8136 140.632 72.1465 141.436 72.739 142.029C73.3314 142.622 74.135 142.956 74.9729 142.956H87.6102C88.4481 142.956 89.2517 142.622 89.8442 142.029C90.4366 141.436 90.7695 140.632 90.7695 139.793C90.7695 138.954 90.4366 138.149 89.8442 137.556C89.2517 136.963 88.4481 136.63 87.6102 136.63H74.9729Z" fill="#155FE8"/>
<path d="M64.3577 56.5612C64.0999 56.5615 63.8528 56.6641 63.6706 56.8466C63.4883 57.029 63.3858 57.2764 63.3856 57.5345V82.2408C63.3858 82.4988 63.4883 82.7462 63.6706 82.9287C63.8528 83.1112 64.0999 83.2138 64.3577 83.2141H98.2254C98.4832 83.2138 98.7303 83.1112 98.9125 82.9287C99.0948 82.7462 99.1973 82.4988 99.1975 82.2408V57.5345C99.1973 57.2764 99.0948 57.029 98.9125 56.8466C98.7303 56.6641 98.4832 56.5615 98.2254 56.5612L64.3577 56.5612Z" fill="#155FE8"/>
<path d="M81.2916 72.5082C84.2444 72.5082 86.6381 70.1116 86.6381 67.1552C86.6381 64.1988 84.2444 61.8022 81.2916 61.8022C78.3388 61.8022 75.945 64.1988 75.945 67.1552C75.945 70.1116 78.3388 72.5082 81.2916 72.5082Z" fill="white"/>
<path d="M90.0405 80.7809C90.0424 81.6269 89.8424 82.4611 89.4572 83.2141H73.126C72.7098 82.398 72.5098 81.4886 72.5453 80.5729C72.5808 79.6573 72.8504 78.7661 73.3284 77.9847C73.8065 77.2033 74.4769 76.5579 75.2754 76.1102C76.074 75.6625 76.974 75.4276 77.8892 75.428H84.6939C86.1111 75.4272 87.4706 75.9901 88.4732 76.9928C89.4759 77.9955 90.0397 79.356 90.0405 80.7749V80.7809Z" fill="white"/>
<path d="M81.2916 72.5082C84.2444 72.5082 86.6381 70.1116 86.6381 67.1552C86.6381 64.1988 84.2444 61.8022 81.2916 61.8022C78.3388 61.8022 75.945 64.1988 75.945 67.1552C75.945 70.1116 78.3388 72.5082 81.2916 72.5082Z" fill="white"/>
<path d="M90.0405 80.7809C90.0424 81.6269 89.8424 82.4611 89.4572 83.2141H73.126C72.7098 82.398 72.5098 81.4886 72.5453 80.5729C72.5808 79.6573 72.8504 78.7661 73.3284 77.9847C73.8065 77.2033 74.4769 76.5579 75.2754 76.1102C76.074 75.6625 76.974 75.4276 77.8892 75.428H84.6939C86.1111 75.4272 87.4706 75.9901 88.4732 76.9928C89.4759 77.9955 90.0397 79.356 90.0405 80.7749V80.7809Z" fill="white"/>
<path d="M81.2916 25.3049C88.271 25.3049 93.9289 19.6402 93.9289 12.6524C93.9289 5.66469 88.271 0 81.2916 0C74.3122 0 68.6543 5.66469 68.6543 12.6524C68.6543 19.6402 74.3122 25.3049 81.2916 25.3049Z" fill="#E6E6E6"/>
<path d="M81.2916 18.9787C84.7813 18.9787 87.6102 16.1463 87.6102 12.6524C87.6102 9.15857 84.7813 6.32623 81.2916 6.32623C77.8019 6.32623 74.9729 9.15857 74.9729 12.6524C74.9729 16.1463 77.8019 18.9787 81.2916 18.9787Z" fill="#155FE8"/>
<path d="M396.194 377.115L390.14 377.114L387.26 353.734L396.196 353.735L396.194 377.115Z" fill="#FFB8B8"/>
<path d="M385.815 375.383H397.491V382.743H378.463C378.463 381.776 378.653 380.819 379.023 379.926C379.392 379.033 379.934 378.222 380.617 377.538C381.299 376.855 382.11 376.313 383.002 375.943C383.894 375.573 384.85 375.383 385.815 375.383Z" fill="#2F2E41"/>
<path d="M428.828 377.115L422.773 377.114L419.894 353.734L428.83 353.735L428.828 377.115Z" fill="#FFB8B8"/>
<path d="M418.449 375.383H430.125V382.743H411.097C411.097 381.776 411.287 380.819 411.657 379.926C412.026 379.033 412.568 378.222 413.25 377.538C413.933 376.855 414.743 376.313 415.635 375.943C416.527 375.573 417.483 375.383 418.449 375.383Z" fill="#2F2E41"/>
<path d="M411.097 210.904C418.28 210.904 424.104 205.073 424.104 197.881C424.104 190.689 418.28 184.858 411.097 184.858C403.913 184.858 398.09 190.689 398.09 197.881C398.09 205.073 403.913 210.904 411.097 210.904Z" fill="#FFB8B8"/>
<path d="M366.621 282.811C366.712 282.09 366.959 281.397 367.346 280.782C367.733 280.167 368.25 279.645 368.861 279.252C369.471 278.858 370.161 278.604 370.88 278.506C371.6 278.409 372.332 278.47 373.025 278.686L380.294 269.962L386.667 273.091L376.228 285.268C375.789 286.409 374.946 287.35 373.859 287.911C372.773 288.472 371.519 288.615 370.335 288.312C369.15 288.009 368.118 287.282 367.434 286.268C366.749 285.254 366.46 284.024 366.621 282.811Z" fill="#FFB8B8"/>
<path d="M429.183 291.635C428.873 290.977 428.711 290.26 428.708 289.533C428.705 288.806 428.861 288.087 429.166 287.428C429.47 286.768 429.916 286.183 430.471 285.714C431.025 285.245 431.676 284.904 432.377 284.714L433.836 273.447L440.891 272.665L438.607 288.547C438.848 289.747 438.64 290.993 438.024 292.05C437.408 293.107 436.426 293.901 435.265 294.282C434.103 294.663 432.842 294.603 431.721 294.115C430.6 293.627 429.697 292.745 429.183 291.635Z" fill="#FFB8B8"/>
<path d="M421.967 222.478C422.659 221.589 423.573 220.898 424.616 220.476C425.66 220.053 426.796 219.913 427.911 220.071C429.025 220.229 430.079 220.678 430.965 221.373C431.85 222.069 432.537 222.986 432.956 224.032L443.617 250.671C444.707 253.393 445.054 256.356 444.624 259.257L441.151 282.671C441.107 282.973 440.997 283.261 440.83 283.517C440.664 283.773 440.444 283.99 440.186 284.153C439.928 284.316 439.638 284.421 439.336 284.461C439.033 284.502 438.726 284.476 438.434 284.386L433.859 282.98C433.385 282.834 432.977 282.527 432.707 282.111C432.436 281.696 432.319 281.198 432.377 280.705C433.992 266.921 431.857 252.956 426.2 240.286L421.174 229.03C420.7 227.969 420.523 226.798 420.663 225.644C420.803 224.49 421.254 223.396 421.967 222.478Z" fill="#155FE8"/>
<path d="M414.264 210.903C416.221 210.946 418.166 210.573 419.969 209.809C421.773 209.045 423.394 207.908 424.728 206.472C426.061 205.037 427.075 203.335 427.705 201.478C428.334 199.622 428.564 197.653 428.38 195.701C428.195 193.75 427.6 191.859 426.633 190.154C425.667 188.449 424.351 186.968 422.772 185.809C421.193 184.649 419.387 183.837 417.473 183.426C415.558 183.015 413.578 183.015 411.663 183.424C408.803 181.685 405.477 180.515 402.144 180.813C398.811 181.111 395.515 183.092 394.268 186.201C393.022 189.31 394.361 193.409 397.46 194.673C399.447 195.483 401.691 195.09 403.811 194.763C405.932 194.437 408.245 194.223 410.09 195.319C411.936 196.414 412.765 199.351 411.112 200.721C410.236 201.476 409.611 202.48 409.319 203.599C409.027 204.719 409.083 205.901 409.479 206.988C410.31 209.139 412.577 210.867 414.264 210.903Z" fill="#2F2E41"/>
<path d="M430.402 282.296L432.709 369.963C432.717 370.255 432.664 370.545 432.554 370.816C432.444 371.087 432.28 371.332 432.071 371.537C431.862 371.741 431.613 371.899 431.34 372.003C431.067 372.106 430.775 372.151 430.484 372.137L422.883 371.748C422.398 371.724 421.936 371.533 421.575 371.208C421.214 370.883 420.975 370.443 420.899 369.963L411.858 313.023C411.819 312.78 411.697 312.557 411.512 312.394C411.327 312.231 411.091 312.137 410.845 312.13C410.599 312.122 410.357 312.201 410.163 312.352C409.968 312.503 409.832 312.718 409.778 312.958L397.541 367.781C397.475 368.074 397.349 368.35 397.169 368.591C396.989 368.831 396.76 369.03 396.498 369.175C396.235 369.321 395.945 369.408 395.646 369.433C395.347 369.457 395.046 369.418 394.764 369.317L387.221 368.856C386.784 368.701 386.411 368.406 386.157 368.018C385.904 367.63 385.784 367.169 385.817 366.707L392.402 281.466L430.402 282.296Z" fill="#2F2E41"/>
<path d="M434.105 240.657C435.377 227.372 425.621 215.356 412.325 214.411C406.596 214.004 397.702 213.858 394.77 221.376C385.938 244.024 401.399 243.474 396.072 263.096C390.745 282.717 386.04 283.842 393.349 285.259C400.658 286.676 433.527 295.04 432.178 281.229C431.348 272.74 432.835 253.909 434.105 240.657Z" fill="#155FE8"/>
<path d="M396.334 219.073C397.384 218.666 398.522 218.543 399.634 218.718C400.746 218.892 401.793 219.357 402.668 220.066C403.543 220.775 404.216 221.702 404.619 222.754C405.022 223.807 405.141 224.947 404.963 226.06L400.811 252.036C400.101 256.478 398.225 260.651 395.375 264.129L381.892 280.578C381.699 280.814 381.456 281.006 381.182 281.14C380.908 281.273 380.608 281.346 380.303 281.353C379.998 281.36 379.695 281.301 379.415 281.18C379.135 281.059 378.884 280.879 378.68 280.652L375.478 277.091C375.146 276.722 374.954 276.249 374.935 275.753C374.916 275.257 375.071 274.77 375.374 274.377L376.317 273.152C384.161 262.96 389.109 250.837 390.64 238.062L392.29 224.285C392.428 223.13 392.878 222.035 393.59 221.117C394.302 220.199 395.251 219.492 396.334 219.073Z" fill="#155FE8"/>
<path d="M467.47 384H330.837C330.697 384 330.562 383.944 330.463 383.845C330.363 383.745 330.307 383.61 330.307 383.47C330.307 383.329 330.363 383.194 330.463 383.095C330.562 382.995 330.697 382.94 330.837 382.94H467.47C467.611 382.94 467.746 382.995 467.845 383.095C467.944 383.194 468 383.329 468 383.47C468 383.61 467.944 383.745 467.845 383.845C467.746 383.944 467.611 384 467.47 384Z" fill="#CCCCCC"/>
</g>
<defs>
<clipPath id="clip0_5_4">
<rect width="468" height="384" fill="white"/>
</clipPath>
</defs>
</svg>
